# xmcd
#
# Track frame offsets: 
#        150
#        34768
#        47731
#        63212
#        97813
#        103277
#        128264
#        134429
#        143188
#        146173
#        149272
#        159079
#        199777
#        204876
#        209954
#        221638
#        244685
#
# Disc length: 4000 seconds
#
# Revision: 0
# Processed by: cddbd v1.5.2PL0 Copyright (c) Steve Scherf et al.
# Submitted via: ExactAudioCopy v0.99pb1
#
DISCID=000f9e11
DTITLE=Prince and The New Power Generation - One Nite Alone... Live! [Di
DTITLE=sc 2]
DYEAR=1900
DGENRE=R&B
TTITLE0=Family Name
TTITLE1=Take Me With U
TTITLE2=Raspberry Beret
TTITLE3=The Everlasting Now
TTITLE4=One Nite Alone...
TTITLE5=Adore
TTITLE6=Wanna B Ur Lover
TTITLE7=Do Me Baby
TTITLE8=Condition Of The Heart
TTITLE9=Diamonds And Pearls
TTITLE10=The Beautiful Ones
TTITLE11=Nothing Compares 2 U
TTITLE12=Free
TTITLE13=Starfish And Coffee
TTITLE14=Sometimes It Snows In April
TTITLE15=How Come U Don't Call Me Anymore
TTITLE16=Anna Stesia
EXTD=
EXTT0=
EXTT1=
EXTT2=
EXTT3=
EXTT4=
EXTT5=
EXTT6=
EXTT7=
EXTT8=
EXTT9=
EXTT10=
EXTT11=
EXTT12=
EXTT13=
EXTT14=
EXTT15=
EXTT16=
PLAYORDER=
